<svg xmlns="http://www.w3.org/2000/svg" viewBox="0 0 26.39 49.89"><defs><style>.cls-1{fill:#3f805b;}</style></defs><g id="Layer_2" data-name="Layer 2"><g id="page_4" data-name="page 4"><g id="waste"><path class="cls-1" d="M1.07,44.14l11.57,5.6a1.68,1.68,0,0,0,2.29-1.09L25.16,20.37a2.14,2.14,0,0,0-.93-2.64l-11.57-5.6a1.67,1.67,0,0,0-2.29,1.08L.13,41.5A2.16,2.16,0,0,0,1.07,44.14Z"/><polygon class="cls-1" points="15.85 14.72 19.89 16.68 23.94 5.48 19.9 3.53 15.85 14.72"/><path class="cls-1" d="M18.34,5.16,24,7.92a.81.81,0,0,0,1.11-.53l1.19-3.27a1.06,1.06,0,0,0-.46-1.29L20.18.08a.81.81,0,0,0-1.11.53L17.88,3.87A1.05,1.05,0,0,0,18.34,5.16Z"/></g></g></g></svg>