<svg xmlns="http://www.w3.org/2000/svg" viewBox="0 0 33.62 46.87"><defs><style>.cls-1{fill:#3f805b;}</style></defs><g id="Layer_2" data-name="Layer 2"><g id="page_4" data-name="page 4"><g id="waste"><path class="cls-1" d="M22.66,46.5l10.23-8.39a2.24,2.24,0,0,0,.41-2.82L17.91,10.19a1.62,1.62,0,0,0-2.44-.48L5.24,18.1a2.24,2.24,0,0,0-.41,2.82L20.22,46A1.61,1.61,0,0,0,22.66,46.5Z"/><polygon class="cls-1" points="8.84 16.34 12.41 13.42 6.32 3.49 2.75 6.41 8.84 16.34"/><path class="cls-1" d="M3.13,8.82l5-4.12a1.1,1.1,0,0,0,.2-1.38L6.58.42A.79.79,0,0,0,5.39.18l-5,4.13a1.08,1.08,0,0,0-.2,1.37l1.78,2.9A.78.78,0,0,0,3.13,8.82Z"/></g></g></g></svg>