<svg xmlns="http://www.w3.org/2000/svg" viewBox="0 0 158.74 72.2"><defs><style>.cls-1{fill:#00bff3;stroke-width:0.5px;}.cls-1,.cls-2,.cls-3,.cls-4,.cls-5,.cls-6{stroke:#000;}.cls-1,.cls-2,.cls-3,.cls-4,.cls-5,.cls-6,.cls-7{stroke-miterlimit:10;}.cls-2,.cls-5{fill:#fff;}.cls-2,.cls-3{stroke-width:2px;}.cls-3{fill:none;}.cls-4{fill:#f9fbfb;}.cls-4,.cls-5,.cls-6{stroke-width:0.75px;}.cls-6{fill:#e6e854;}.cls-7{fill:#ececec;stroke:#070707;}</style></defs><g id="Layer_2" data-name="Layer 2"><g id="page_1" data-name="page 1"><g id="vehicles"><g id="clouds"><path class="cls-1" d="M22.88,8.87l16.94,2.55L58.71.28,99.17,18.69,93.13,40c6.19,7.88,12.22,15.73,8.14,21.77L88.09,60.46c7.37-13.88-8.29-18.38-8.29-18.38s-13.36-1-16,9.92L48.9,45.65C57.43,26.5,42,24.41,40.43,22.78c-2.12-2.21-16.64,0-19.14,14.61L5.77,35.05s2.3-13.56,2.1-13.38S16.54,9.64,22.88,8.87Z"/><ellipse class="cls-2" cx="37.71" cy="35.51" rx="13.02" ry="13.96" transform="translate(-1.64 69.19) rotate(-83.83)"/><ellipse class="cls-3" cx="77.3" cy="53.37" rx="10.97" ry="11.76" transform="translate(15.93 124.49) rotate(-83.83)"/><path class="cls-4" d="M87.25,32.58l-8.52-4.26a2.2,2.2,0,0,1-1-3.06l4.44-7.92a2.49,2.49,0,0,1,3.26-.91l8.53,4.26a2.22,2.22,0,0,1,1,3.06l-4.45,7.92A2.48,2.48,0,0,1,87.25,32.58Z"/><polygon class="cls-5" points="67.69 10.24 63.3 19.29 70.14 23.09 74.75 12.69 67.69 10.24"/><path class="cls-5" d="M57.85,1.62c4,4.55,3.63,8.76.27,12.73-14.16-.7-16.33-3-11.69-6.13Z"/><ellipse class="cls-6" cx="77.97" cy="51.76" rx="4.8" ry="5.15" transform="translate(18.13 123.72) rotate(-83.83)"/><ellipse class="cls-6" cx="37.9" cy="34.19" rx="4.8" ry="5.15" transform="translate(-0.16 68.19) rotate(-83.83)"/><path class="cls-5" d="M22.44,28.39,3.65,25.57C-2.61,24.62,1.38,15.51,5,16.76S22.66,22.13,22.44,28.39Z"/><path class="cls-7" d="M135.7,60.15c1.29-3.88,6-4.69,6-4.69s5.15-1.6,7.28,1.14c3.3-.93,5.83-.74,7.61.58a3.64,3.64,0,0,1,.91,5.18c-1,1.53-2.91,2.59-5.5,3.26-.79,2.5-2.83,4.29-6,5.48-3.2,1-6.12.86-8.6-.91q-4.62,2.11-7.81.69c-3-1.33-3.68-4.45-1.75-7.11C129.27,61.87,131.64,60.54,135.7,60.15Z"/><path class="cls-7" d="M108.71,61.19c1.73-1.13,4,0,4,0s2.7,1,2.78,2.69c1.7.65,2.73,1.5,3.09,2.56a1.7,1.7,0,0,1-1.18,2.31,5.07,5.07,0,0,1-3.35-.42,4.86,4.86,0,0,1-4.22.3,5.21,5.21,0,0,1-3.42-3,5.35,5.35,0,0,1-3.57-2.13,2.11,2.11,0,0,1,1.41-3.32C105.43,59.88,106.85,60.09,108.71,61.19Z"/></g></g></g></g></svg>