<svg xmlns="http://www.w3.org/2000/svg" viewBox="0 0 154.61 56.31"><defs><style>.cls-1{fill:#000a0a;}.cls-1,.cls-10,.cls-11,.cls-12,.cls-13,.cls-14,.cls-15,.cls-16,.cls-17,.cls-2,.cls-3,.cls-4,.cls-5,.cls-6,.cls-7,.cls-8,.cls-9{stroke:#000;stroke-miterlimit:10;stroke-width:0.25px;}.cls-2{fill:#6b1ce0;}.cls-3{fill:#76cfd6;}.cls-4{fill:#81dbd3;}.cls-5{fill:#040200;}.cls-6{fill:#e3afbb;}.cls-7{fill:#cac6c7;}.cls-8{fill:#f2edee;}.cls-9{fill:#e6d113;}.cls-10{fill:#dfe00b;}.cls-11{fill:#0c0b0c;}.cls-12{fill:#000202;}.cls-13{fill:#c6caca;}.cls-14{fill:#8d9494;}.cls-15{fill:#ebf2f1;}.cls-16{fill:none;}.cls-17{fill:#020001;}.cls-18{fill:#bbeced;}</style></defs><g id="Layer_2" data-name="Layer 2"><g id="page_3" data-name="page 3"><g id="car"><path class="cls-1" d="M131.86,55.19l6.54,0c4.69-2.11,6.84-5.4,7-9.63H144c-.41-11.37-3.25-19.85-12.38-20.85-8.5.14-12.57,7.17-12.62,20.47l4.58,0C124.36,49.74,126.69,55.1,131.86,55.19Z"/><path class="cls-1" d="M45.86,54.19l6.54,0c4.69-2.11,6.84-5.4,7-9.63H58c-.41-11.37-3.25-19.85-12.38-20.85-8.5.14-12.57,7.17-12.62,20.47l4.58,0C38.36,48.74,40.69,54.1,45.86,54.19Z"/><path class="cls-2" d="M152,46l-60,.48c-.64-13.05-4.43-20.59-12.38-20.85C71.6,25.13,67.22,32,67,47.41l-31.77.16c0-15.84-4.56-22.45-12.27-22.9-7.52.45-12.5,5.91-11.85,22.4l-9.68.39-1.2-.8L.13,32.53a1.45,1.45,0,0,0,1.19-1.18l-.06-7.46c-.16-3.34,2.09-5.48,5.34-7.13l7.8-.06L30.14.61,92,.13c3.79,1,9.64,5.68,15.7,10.78l3.85,3.44.93,1,30.1,5.55c4.62,1.13,8.24,4.13,11.2,8.36.73,3.17.83,8.46.69,14.51C154.11,45.38,153.26,46.05,152,46Z"/><polygon class="cls-3" points="109.5 14.36 95.18 2.53 61.52 2.8 71.24 14.66 109.5 14.36"/><path class="cls-3" d="M43.65,3.17l.1,12.06-18.48.14,8-10.82C34,2.78,38.53,2.82,43.65,3.17Z"/><polygon class="cls-4" points="45.92 15.21 45.82 2.92 56.84 2.83 66.31 15.05 45.92 15.21"/><rect class="cls-5" x="48.55" y="18.72" width="5.99" height="1.13" transform="translate(103.25 38.17) rotate(179.55)"/><rect class="cls-5" x="27.38" y="18.89" width="5.81" height="1.13" transform="translate(60.73 38.67) rotate(179.55)"/><polygon class="cls-2" points="107.66 10.9 113.56 10.86 113.59 14.33 111.51 14.35 107.66 10.9"/><rect class="cls-6" x="124.3" y="38.13" width="17.09" height="5.81" transform="translate(-0.32 1.05) rotate(-0.45)"/><path class="cls-7" d="M144.14,29.07c.17,3.28-1.23,5.06-4.48,5.07-4.77-.21-7.69-1.42-7.84-4.11C135.61,25.48,139.75,25.68,144.14,29.07Z"/><path class="cls-7" d="M119.14,30.07c.17,3.28-1.23,5.06-4.48,5.07-4.77-.21-7.69-1.42-7.84-4.11C110.61,26.48,114.75,26.68,119.14,30.07Z"/><ellipse class="cls-8" cx="113.38" cy="31.64" rx="1.78" ry="1.17" transform="translate(-0.25 0.89) rotate(-0.45)"/><ellipse class="cls-8" cx="138.38" cy="30.64" rx="1.78" ry="1.17" transform="translate(-0.24 1.09) rotate(-0.45)"/><rect class="cls-9" x="100.5" y="37.28" width="3.3" height="1.08" transform="translate(204.59 74.85) rotate(179.55)"/><path class="cls-10" d="M1.26,23.89l.06,7.46c2,0,2.94-1.29,2.74-3.75C4,25.32,3.05,24.08,1.26,23.89Z"/><polygon class="cls-2" points="63.28 11.14 56.76 11.19 56.79 14.46 63.67 14.4 63.85 11.88 63.28 11.14"/><polygon class="cls-11" points="63.91 19.75 65.48 19.74 65.46 17.01 63.67 14.4 63.01 14.41 64.24 16.76 63.91 19.75"/><path class="cls-1" d="M79.86,56.19l6.54,0c4.69-2.11,6.84-5.4,7-9.63H92c-.41-11.37-3.25-19.85-12.38-20.85-8.5.14-12.57,7.17-12.62,20.47l4.58,0C72.36,50.74,74.69,56.1,79.86,56.19Z"/><path class="cls-12" d="M36.11,47.74c-1.17,3.6-3.12,6.31-6.35,7.6l-8.92.07A11.24,11.24,0,0,1,14.64,47l-3.52,0C9.92,30.48,16.26,25,23,24.67c7.84.52,12.37,7.31,12.27,22.9Z"/><ellipse class="cls-13" cx="23.1" cy="41.06" rx="8.51" ry="13.9" transform="translate(-0.32 0.18) rotate(-0.45)"/><ellipse class="cls-13" cx="79.84" cy="42.29" rx="8.51" ry="13.9" transform="translate(-0.33 0.63) rotate(-0.45)"/><ellipse class="cls-14" cx="79.84" cy="42.15" rx="6.55" ry="10.25" transform="translate(-0.33 0.63) rotate(-0.45)"/><ellipse class="cls-14" cx="23.1" cy="41.06" rx="6.55" ry="10.25" transform="translate(-0.32 0.18) rotate(-0.45)"/><ellipse class="cls-15" cx="80.16" cy="42.29" rx="2.37" ry="3.75" transform="translate(-0.33 0.63) rotate(-0.45)"/><ellipse class="cls-15" cx="23.1" cy="41.06" rx="2.37" ry="3.75" transform="translate(-0.32 0.18) rotate(-0.45)"/><line class="cls-16" x1="138.84" y1="39.26" x2="138.86" y2="42.82"/><line class="cls-16" x1="128.27" y1="39.21" x2="128.29" y2="42.77"/><line class="cls-16" x1="131.58" y1="39.2" x2="131.61" y2="42.76"/><line class="cls-16" x1="135.1" y1="39.28" x2="135.13" y2="42.83"/><rect class="cls-17" x="93.13" y="13.48" width="13.17" height="0.64" transform="translate(199.53 26.82) rotate(179.55)"/><rect class="cls-17" x="75.15" y="13.63" width="11.37" height="0.64" transform="translate(161.77 27.27) rotate(179.55)"/><rect class="cls-18" x="71.13" y="4.1" width="1.97" height="8.82" transform="translate(132.68 -31.53) rotate(139.8)"/></g></g></g></svg>