<svg xmlns="http://www.w3.org/2000/svg" viewBox="0 0 76.4 38.43"><defs><style>.cls-1{fill:#a1647c;stroke-width:0.5px;}.cls-1,.cls-2,.cls-3,.cls-4,.cls-5,.cls-6{stroke:#000;stroke-miterlimit:10;}.cls-2,.cls-5{fill:#fff;}.cls-2,.cls-3{stroke-width:2px;}.cls-3{fill:none;}.cls-4{fill:#f9fbfb;}.cls-4,.cls-5,.cls-6{stroke-width:0.75px;}.cls-6{fill:#e6e854;}</style></defs><g id="Layer_2" data-name="Layer 2"><g id="page_5" data-name="page 5"><g id="cars"><path class="cls-1" d="M12.54,14.61l11.52-2.53L33.47.26,64,2.13,65.4,17.31c5.93,3.55,11.74,7.11,10.6,12l-8.8,2.42C68.53,21,57.34,22,57.34,22s-8.83,2.67-7.85,10.33l-11.15-.42c.77-14.42-9.68-12-11.08-12.62-1.91-.9-10.7,4.12-8.71,14.11L8,35.68S6.12,26.39,6,26.55,8.65,16.67,12.54,14.61Z"/><ellipse class="cls-2" cx="28.65" cy="28.1" rx="9.62" ry="8.97" transform="translate(-6.23 8.25) rotate(-14.8)"/><ellipse class="cls-3" cx="58.51" cy="29.83" rx="8.1" ry="7.56" transform="translate(-5.68 15.94) rotate(-14.8)"/><path class="cls-4" d="M59.79,14l-6.53-.64a1.52,1.52,0,0,1-1.42-1.71l.91-6.19a1.7,1.7,0,0,1,1.87-1.39l6.54.63a1.52,1.52,0,0,1,1.41,1.72l-.91,6.19A1.7,1.7,0,0,1,59.79,14Z"/><polygon class="cls-5" points="41.7 4.45 41.11 11.35 46.45 12.11 46.85 4.29 41.7 4.45"/><path class="cls-5" d="M33.24,1.33c3.7,1.94,4.5,4.74,3.32,8.12-9.29,3-11.24,2.12-9-1.06Z"/><ellipse class="cls-6" cx="58.55" cy="28.63" rx="3.55" ry="3.31" transform="translate(-5.37 15.91) rotate(-14.8)"/><ellipse class="cls-6" cx="28.44" cy="27.2" rx="3.55" ry="3.31" transform="matrix(0.97, -0.26, 0.26, 0.97, -6, 8.17)"/><path class="cls-5" d="M17.06,27.28,4.28,30.1C0,31,.34,24.19,3,24.09S15.67,23.2,17.06,27.28Z"/><path class="cls-1" d="M11.88,14.61,23.4,12.08,32.81.26,63.38,2.13l1.36,15.18c5.93,3.55,11.74,7.11,10.6,12l-8.8,2.42C67.87,21,56.68,22,56.68,22s-8.84,2.67-7.85,10.33l-11.15-.42c.77-14.42-9.68-12-11.09-12.62-1.9-.9-10.69,4.12-8.7,14.11L7.32,35.68s-1.86-9.29-1.95-9.13S8,16.67,11.88,14.61Z"/><ellipse class="cls-2" cx="27.99" cy="28.1" rx="9.62" ry="8.97" transform="translate(-6.25 8.08) rotate(-14.8)"/><ellipse class="cls-3" cx="57.85" cy="29.83" rx="8.1" ry="7.56" transform="translate(-5.7 15.77) rotate(-14.8)"/><path class="cls-4" d="M59.13,14l-6.53-.64a1.52,1.52,0,0,1-1.42-1.71l.91-6.19A1.7,1.7,0,0,1,54,4.07l6.53.63a1.53,1.53,0,0,1,1.42,1.72L61,12.61A1.7,1.7,0,0,1,59.13,14Z"/><polygon class="cls-5" points="41.04 4.45 40.45 11.35 45.78 12.11 46.19 4.29 41.04 4.45"/><path class="cls-5" d="M32.58,1.33c3.7,1.94,4.5,4.74,3.32,8.12-9.29,3-11.24,2.12-9-1.06Z"/><ellipse class="cls-6" cx="57.89" cy="28.63" rx="3.55" ry="3.31" transform="translate(-5.39 15.74) rotate(-14.8)"/><ellipse class="cls-6" cx="27.78" cy="27.2" rx="3.55" ry="3.31" transform="translate(-6.03 8) rotate(-14.8)"/><path class="cls-5" d="M16.4,27.28,3.62,30.1c-4.26.93-3.94-5.91-1.28-6S15,23.2,16.4,27.28Z"/></g></g></g></svg>