<svg xmlns="http://www.w3.org/2000/svg" viewBox="0 0 69.86 35.52"><defs><style>.cls-1{fill:#a1647c;stroke-width:0.5px;}.cls-1,.cls-2,.cls-3,.cls-4,.cls-5,.cls-6{stroke:#000;stroke-miterlimit:10;}.cls-2,.cls-5{fill:#fff;}.cls-2,.cls-3{stroke-width:2px;}.cls-3{fill:none;}.cls-4{fill:#f9fbfb;}.cls-4,.cls-5,.cls-6{stroke-width:0.75px;}.cls-6{fill:#e6e854;}</style></defs><g id="Layer_2" data-name="Layer 2"><g id="page_5" data-name="page 5"><g id="cars"><path class="cls-1" d="M11,13.49,21.6,11.15,30.27.26,58.44,2,59.7,16c5.46,3.26,10.82,6.55,9.77,11.06l-8.11,2.23c1.22-9.91-9.09-9-9.09-9S44.13,22.71,45,29.77l-10.27-.38c.71-13.3-8.92-11-10.22-11.64-1.76-.83-9.85,3.8-8,13L6.78,32.9S5.06,24.34,5,24.49,7.39,15.39,11,13.49Z"/><ellipse class="cls-2" cx="25.82" cy="25.92" rx="8.87" ry="8.27" transform="translate(-5.76 7.46) rotate(-14.8)"/><ellipse class="cls-3" cx="53.35" cy="27.52" rx="7.47" ry="6.97" transform="translate(-5.26 14.54) rotate(-14.8)"/><path class="cls-4" d="M54.53,12.93l-6-.59a1.39,1.39,0,0,1-1.3-1.58L48,5.05a1.58,1.58,0,0,1,1.73-1.28l6,.59a1.39,1.39,0,0,1,1.3,1.58l-.83,5.7A1.59,1.59,0,0,1,54.53,12.93Z"/><polygon class="cls-5" points="37.86 4.12 37.31 10.48 42.23 11.19 42.6 3.97 37.86 4.12"/><path class="cls-5" d="M30.06,1.25C33.47,3,34.2,5.62,33.12,8.73c-8.56,2.81-10.36,1.95-8.33-1Z"/><ellipse class="cls-6" cx="53.39" cy="27.41" rx="3.27" ry="3.05" transform="translate(-5.23 14.55) rotate(-14.8)"/><ellipse class="cls-6" cx="25.63" cy="25.09" rx="3.27" ry="3.05" transform="translate(-5.56 7.38) rotate(-14.8)"/><path class="cls-5" d="M15.15,25.17,3.37,27.76c-3.93.86-3.63-5.45-1.18-5.54S13.86,21.4,15.15,25.17Z"/></g></g></g></svg>