<svg xmlns="http://www.w3.org/2000/svg" viewBox="0 0 32.14 17.59"><defs><style>.cls-1{fill:#ececec;stroke:#070707;stroke-miterlimit:10;}</style></defs><g id="Layer_2" data-name="Layer 2"><g id="page_3" data-name="page 3"><g id="cloud"><path class="cls-1" d="M15.36,15.35a7.7,7.7,0,0,1-7-.85c-2.23-1.29-2.86-3.45-2.46-6.18C2.45,7.43.85,6.07.55,4.38a2.89,2.89,0,0,1,1-2.75C4-.5,6.61.67,9.25,2.7c1.67-.93,3.75-.84,6.07-.12a5.13,5.13,0,0,1,3.09,2.05l.27-.08a7.5,7.5,0,0,1,8.38,4.18q.17.45.3.93c2.33.8,3.78,1.9,4.17,3.35a2.8,2.8,0,0,1-1.36,3.19c-1.45.92-3.36.79-5.92-.83-1.7,1-3.4,1.84-5.14,1.7A6.17,6.17,0,0,1,15.36,15.35Z"/></g></g></g></svg>