<svg xmlns="http://www.w3.org/2000/svg" viewBox="0 0 12.67 11.48"><defs><style>.cls-1{fill:#ececec;stroke:#070707;stroke-miterlimit:10;}</style></defs><g id="Layer_2" data-name="Layer 2"><g id="page_3" data-name="page 3"><g id="cloud"><path class="cls-1" d="M7.45,9.61c-1.37,2-3,1.24-3,1.24A2.38,2.38,0,0,1,2.64,8.32,2.57,2.57,0,0,1,.54,6,3.85,3.85,0,0,1,1.6,2.75a2.4,2.4,0,0,1,2.45-.53A3.35,3.35,0,0,1,7.2.51,2.91,2.91,0,0,1,9.5,3.24,2.26,2.26,0,0,1,12,4.82a4.53,4.53,0,0,1-1.3,4.65A2.47,2.47,0,0,1,7.45,9.61Z"/></g></g></g></svg>