<svg xmlns="http://www.w3.org/2000/svg" viewBox="0 0 24.49 14.07"><defs><style>.cls-1{fill:#ececec;stroke:#070707;stroke-miterlimit:10;}</style></defs><g id="Layer_2" data-name="Layer 2"><g id="page_3" data-name="page 3"><g id="cloud"><path class="cls-1" d="M11.55,12.26a5.47,5.47,0,0,1-5.3-.52c-1.67-1-2.1-2.73-1.73-4.95C1.9,6.15.72,5.09.52,3.73a2.59,2.59,0,0,1,.84-2.25C3.28-.3,5.23.59,7.19,2.17a5.54,5.54,0,0,1,4.63-.24,3.63,3.63,0,0,1,2.3,1.59l.21-.07a5.27,5.27,0,0,1,6.28,3.19,4.79,4.79,0,0,1,.21.74C22.58,8,23.66,8.83,23.93,10a2.47,2.47,0,0,1-1.11,2.61c-1.13.78-2.58.72-4.49-.53a7.38,7.38,0,0,1-4,1.49A4.29,4.29,0,0,1,11.55,12.26Z"/></g></g></g></svg>