<svg xmlns="http://www.w3.org/2000/svg" viewBox="0 0 138.81 149.27"><defs><style>.cls-1{fill:#8d8c8c;}.cls-2{fill:#3a3a3a;}.cls-3{fill:#fff;stroke:#fff;stroke-miterlimit:10;}</style></defs><g id="Layer_2" data-name="Layer 2"><g id="page_4" data-name="page 4"><g id="industry"><rect class="cls-1" x="28.51" y="40.33" width="29.46" height="108.93"/><rect class="cls-1" x="68.43" y="10.46" width="29.46" height="138.8"/><rect class="cls-1" x="108.34" y="4.74" width="29.46" height="144.52"/><ellipse class="cls-2" cx="43.24" cy="39.8" rx="14.73" ry="3.77"/><ellipse class="cls-2" cx="83.31" cy="9.07" rx="15.5" ry="4.51"/><ellipse class="cls-2" cx="123.31" cy="4.51" rx="15.5" ry="4.51"/><polygon class="cls-1" points="66.53 149.26 0 149.26 0 85.72 66.53 61.47 66.53 149.26"/><rect class="cls-3" x="19.48" y="95.33" width="11.4" height="10.03"/><rect class="cls-3" x="39.44" y="95.33" width="11.4" height="10.03"/><rect class="cls-3" x="39.44" y="113.73" width="11.4" height="10.03"/><rect class="cls-3" x="19.48" y="114.56" width="11.4" height="10.03"/><polygon class="cls-1" points="133.05 149.26 66.53 149.26 66.53 94.19 133.05 73.17 133.05 149.26"/><rect class="cls-3" x="75.56" y="107.04" width="8.55" height="7.53"/><rect class="cls-3" x="95.51" y="107.04" width="8.55" height="7.53"/><rect class="cls-3" x="113.57" y="107.04" width="8.55" height="7.53"/></g></g></g></svg>