<svg xmlns="http://www.w3.org/2000/svg" viewBox="0 0 145.5 173.34"><defs><style>.cls-1,.cls-3{fill:#8d8c8c;}.cls-2{fill:#3a3a3a;}.cls-3{stroke:#0c0c0c;}.cls-3,.cls-4{stroke-miterlimit:10;}.cls-4{fill:#fff;stroke:#fff;}</style></defs><g id="Layer_2" data-name="Layer 2"><g id="page_3" data-name="page 3"><g id="industry"><rect class="cls-1" x="30.5" y="42.57" width="31" height="130.28"/><rect class="cls-1" x="72.5" y="6.84" width="31" height="166"/><rect class="cls-1" x="114.5" width="31" height="172.84"/><ellipse class="cls-2" cx="46" cy="41.92" rx="15.5" ry="4.51"/><polygon class="cls-3" points="70.5 172.84 0.5 172.84 0.5 96.84 70.5 67.84 70.5 172.84"/><rect class="cls-4" x="21" y="108.34" width="12" height="12"/><rect class="cls-4" x="42" y="108.34" width="12" height="12"/><rect class="cls-4" x="42" y="130.34" width="12" height="12"/><rect class="cls-4" x="21" y="131.34" width="12" height="12"/><polygon class="cls-3" points="140.5 172.84 70.5 172.84 70.5 106.97 140.5 81.84 140.5 172.84"/><rect class="cls-4" x="80" y="122.34" width="9" height="9"/><rect class="cls-4" x="101" y="122.34" width="9" height="9"/><rect class="cls-4" x="120" y="122.34" width="9" height="9"/></g></g></g></svg>