<svg xmlns="http://www.w3.org/2000/svg" viewBox="0 0 9.1 9.37"><defs><style>.cls-1{fill:#ececec;stroke:#070707;stroke-miterlimit:10;}</style></defs><g id="Layer_2" data-name="Layer 2"><g id="page_3" data-name="page 3"><g id="cloud"><path class="cls-1" d="M1.72,4a1.93,1.93,0,0,1,.36-2.46,1.87,1.87,0,0,1,2.4-.33A2,2,0,0,1,6.81.65,2.79,2.79,0,0,1,8.56,2.56a1.94,1.94,0,0,1-.63,1.85,2.61,2.61,0,0,1-.12,2.76,2.28,2.28,0,0,1-2.71.57,1.83,1.83,0,0,1-2,1.1A3.27,3.27,0,0,1,.54,6.27,2,2,0,0,1,1.72,4Z"/></g></g></g></svg>