<svg xmlns="http://www.w3.org/2000/svg" viewBox="0 0 14.47 14.85"><defs><style>.cls-1{fill:#ececec;stroke:#070707;stroke-miterlimit:10;}</style></defs><g id="Layer_2" data-name="Layer 2"><g id="page_3" data-name="page 3"><g id="cloud"><path class="cls-1" d="M3,7.31a3.94,3.94,0,0,1,1.3-3.92S6.17,1.28,8.07,2.16A4.15,4.15,0,0,1,11.84.55,2.53,2.53,0,0,1,14,3a4.28,4.28,0,0,1-1.52,3.05,4.57,4.57,0,0,1-1,4.31A4.62,4.62,0,0,1,7.1,12.05a4.36,4.36,0,0,1-3.44,2.3A3,3,0,0,1,.5,11.12C.52,9.8,1.2,8.52,3,7.31Z"/></g></g></g></svg>