<svg xmlns="http://www.w3.org/2000/svg" viewBox="0 0 190.36 190.36"><defs><style>.cls-1{fill:#1ab7e2;}.cls-2{fill:#2c9146;}</style></defs><g id="Layer_2" data-name="Layer 2"><g id="page_2" data-name="page 2"><g id="earth"><circle class="cls-1" cx="95.18" cy="95.18" r="95.18"/><polygon class="cls-2" points="143.93 40.86 147.64 40.86 147.64 34.36 152.29 34.36 156 34.36 158.79 32.5 158.79 27.86 158.79 24.38 145.14 14.16 134.75 8.6 130 8.6 125.36 8.36 127.22 12.07 133.72 12.07 134.64 16.71 134.64 19.5 135.57 24.14 135.57 30.64 138.36 33.43 138.36 37.14 143.93 40.86"/><polygon class="cls-2" points="119.79 122.57 121.64 126.29 124.43 129.07 127.22 129.07 130.93 129.07 133.72 134.64 133.72 139.29 138.36 139.29 142.07 144.86 143.93 150.43 143.93 157.86 140.22 161.57 135.57 163.43 131.86 169.93 126.29 172.72 123.5 176.43 119.79 179.22 116.07 182 113.29 185.72 111.46 188.97 106.65 188.97 103.07 189.43 103.07 184.79 103.07 181.07 104.93 178.29 105.86 173.64 106.79 168.07 106.79 162.5 103.07 159.72 97.5 160.64 95.64 156 93.79 151.36 87.29 146.72 87.29 142.07 90.07 139.29 91 134.64 93.79 130.93 93.79 128.14 94.72 124.43 99.36 122.57 103.07 120.72 107.72 120.72 111.43 120.72 116.07 123.5 119.79 122.57"/><polygon class="cls-2" points="27.86 36.21 33.43 33.43 38.07 33.43 38.07 36.21 38.07 41.79 41.79 47.36 39.93 54.79 39 64.07 37.14 69.64 37.14 78 39 82.64 41.79 85.43 41.79 88.22 44.57 96.57 47.36 100.29 52 103.07 52 97.5 48.29 91 52 88.22 53.86 93.79 57.57 94.72 59.43 103.07 59.43 108.64 63.14 112.36 67.79 112.36 71.5 115.14 78 120.72 84.5 124.43 90.07 125.36 95.64 124.43 90.07 118.86 87.29 117.93 80.79 115.14 78 115.14 80.79 110.5 82.64 106.79 78 104.93 74.29 106.79 71.5 106.79 66.86 104.93 66.86 100.29 68.71 97.5 75.21 93.79 79.86 91.93 83.57 91.93 87.29 91.93 89.14 94.72 91.93 98.43 93.79 90.07 97.5 85.43 102.14 83.57 104 78.93 105.86 75.21 108.64 74.29 110.5 69.64 116.07 66.86 118.86 66.86 122.57 65.93 124.43 63.14 121.64 57.57 117 55.71 124.43 55.71 128.14 54.79 130 51.07 130 46.43 127.22 41.79 125.36 37.14 121.64 39.93 119.79 36.21 117 30.64 113.29 30.64 109.57 34.36 106.79 38.07 104 39 102.14 41.79 97.5 43.64 93.79 43.64 91 39.93 90.07 34.36 97.5 27.86 102.14 24.14 102.14 20.43 102.14 13.93 97.5 13.93 91.93 13.93 83.57 16.71 78.93 17.64 76.14 16.71 73.36 13.93 66.86 14.86 62.21 13.93 55.71 13.93 52.93 13.93 49.56 11.63 29.33 26.46 25.07 35.29 27.86 36.21"/></g></g></g></svg>