<svg xmlns="http://www.w3.org/2000/svg" viewBox="0 0 353.06 347.17"><defs><style>.cls-1{fill:#00bff3;opacity:0.95;}.cls-1,.cls-2,.cls-3,.cls-4{stroke:#000;stroke-miterlimit:10;}.cls-1,.cls-2,.cls-3{stroke-width:0.25px;}.cls-2{fill:#020202;}.cls-3{fill:#ececec;}.cls-4{fill:none;stroke-linecap:round;stroke-width:3px;}.cls-5{fill:#008100;}</style></defs><g id="Layer_2" data-name="Layer 2"><g id="page_1" data-name="page 1"><g id="page_1_earth" data-name="page 1 earth"><ellipse class="cls-1" cx="176.28" cy="173.58" rx="176.16" ry="173.46"/><circle class="cls-2" cx="134.04" cy="168.19" r="13.48"/><circle class="cls-2" cx="234.7" cy="168.19" r="13.48"/><ellipse class="cls-3" cx="242.79" cy="187.07" rx="1.8" ry="3.6"/><ellipse class="cls-3" cx="242.79" cy="198.75" rx="1.8" ry="2.7"/><ellipse class="cls-3" cx="242.79" cy="210.75" rx="1.8" ry="2.7"/><ellipse class="cls-3" cx="127.75" cy="185.27" rx="1.8" ry="3.6"/><ellipse class="cls-3" cx="127.75" cy="195.15" rx="1.8" ry="2.7"/><path class="cls-4" d="M163.51,197.67c1.35-10.56,9.59-18,21-17.83a20.77,20.77,0,0,1,20.33,19.29"/><path class="cls-5" d="M136.37,43.09c-.27,1.08-.58,2.15-.94,3.21a23.12,23.12,0,0,1-12.94,13.86L93.31,72.66c-.41.18-.81.37-1.19.58C81.29,79.28,74.66,88,71.76,99.08c-3.56,13.56-.47,28,7.51,39.53l17,24.51c5.48,6.82,4.53,13.61,1.64,20.39a51.58,51.58,0,0,1-14.46,19.1c-14.14,11.87-30.5,17.76-49.74,15.94l-.63-.08-9.81-1.66a21.72,21.72,0,0,1-18-18.71C-6.17,168.19,3.66,51.82,107.08,20.8,125.05,15.4,140.6,26.23,136.37,43.09Z"/><path class="cls-5" d="M300,296.89c12.24-11.43,31.62-35.73,30.88-46.35.74-9.95-38.86.1-42.88,7.81-8.78,15.24-.94,28.52,7.8,38.5A2.86,2.86,0,0,0,300,296.89Z"/><path class="cls-5" d="M270.65,26.19c60.22,35.05,107,123.13,68.31,213.9-24.61-7.51-40-19.86-44.94-37.75-2.66-9.1,2.18-22,12.58-37.74,4.89-7.42,9.23-14.75,11.86-21.79a15.91,15.91,0,0,0-8.86-20.33A104.62,104.62,0,0,0,294,117.86c-22-5.93-36.3-15.8-42.22-29.92-.61-1.46-1.23-2.92-1.93-4.34C240.14,63.92,250.87,44.91,270.65,26.19Z"/><path class="cls-5" d="M136.82,226.23a14.15,14.15,0,0,1,5.29,3.9c4.13,5.18,3.16,11.67-.88,19l-7,12.69a29.18,29.18,0,0,0-3.47,9.82c-.85,5.7.32,9.52,3.33,11.64,2.82,2.71,3.92,6.23,3.6,10.41a21.72,21.72,0,0,1-6.12,13.1,39.49,39.49,0,0,1-4.18,3.85,44.69,44.69,0,0,1-15.09,7.7c-8.84,2.68-13.5,1.53-11.35-5.85a17.21,17.21,0,0,0,.74-5.33c-.38-12.28-3.2-19.62-8.66-21.6-2.2-.8-4.46-1.46-6.59-2.43C65.35,273.54,60.51,264,64,254.53A18.93,18.93,0,0,1,67.28,249C85.61,227,112.47,215.23,136.82,226.23Z"/></g></g></g></svg>