<svg xmlns="http://www.w3.org/2000/svg" viewBox="0 0 32.04 16.91"><defs><style>.cls-1{fill:#f1bd65;}</style></defs><g id="Layer_2" data-name="Layer 2"><g id="page_4" data-name="page 4"><g id="fish"><path class="cls-1" d="M13.68,3.06c-1.33-.3-5.9-.78-7.64,0C2.19,4.13.52,5.93,0,8.12c0,3.4,2.75,4.78,6,5.78.43.11.86.2,1.28.27a13,13,0,0,0,7.16-.75L25.75,8.6,18.51,5A42.23,42.23,0,0,0,13.68,3.06Z"/><path class="cls-1" d="M10.86,16.3,8.45,14.14l6.44-1.45c.24.28.5.57.79.86.85.89,1.87,1.83,2.83,2.75C14.24,17.12,11.75,17.1,10.86,16.3Z"/><path class="cls-1" d="M31.38,14.86c.84-3,.35-4.66-1.2-5.3a19.27,19.27,0,0,0-4.43-1s-1.94.14-1.61,1c.13,2.38.7,3.51,1.61,3.61A28.81,28.81,0,0,0,31.38,14.86Z"/><path class="cls-1" d="M32,2.69c-4.95.57-7.41,1.43-7.87,2.53a4.57,4.57,0,0,0,0,2.82,1.92,1.92,0,0,0,2.07.56C30,7.69,31.53,7,31.38,6.43A8.09,8.09,0,0,0,32,2.69Z"/><path class="cls-1" d="M23.34,2.34c-2.42-.85-4.57-1.52-6.23-2a9.58,9.58,0,0,0-6.36.43C8.88,1.65,6.42,2.86,4.43,4c0,0,13.27,1.68,13.68,1.2A52.27,52.27,0,0,1,23.34,2.34Z"/><ellipse cx="3.22" cy="7.64" rx="1.21" ry="0.72"/><path d="M17.3,4.51q2.77,3.74.81,7.46l4-1.87a7.06,7.06,0,0,0-.35-3.35A31.43,31.43,0,0,0,17.3,4.51Z"/><path d="M15.69,3.78a27.35,27.35,0,0,1,.6,9c-.2.11-3.58,1.12-3.58,1.12A21.85,21.85,0,0,0,11.27,2.58Z"/><path d="M8.45,2.58A16.46,16.46,0,0,1,9.66,14.36c-1.9-.09-3.06-.24-3.22-.46A17.11,17.11,0,0,0,5,3.47,13.63,13.63,0,0,1,8.45,2.58Z"/></g></g></g></svg>