<svg xmlns="http://www.w3.org/2000/svg" viewBox="0 0 27.59 14.66"><defs><style>.cls-1{fill:#f1bd65;}</style></defs><g id="Layer_2" data-name="Layer 2"><g id="page_4" data-name="page 4"><g id="fish"><path class="cls-1" d="M15.81,2.66c1.15-.27,5.08-.68,6.58,0,3.31.92,4.75,2.48,5.2,4.38,0,3-2.37,4.15-5.2,5-.37.1-.74.17-1.11.24a11.12,11.12,0,0,1-6.16-.66L5.42,7.46l6.23-3.13A34.47,34.47,0,0,1,15.81,2.66Z"/><path class="cls-1" d="M18.24,14.14l2.07-1.88L14.77,11c-.21.24-.44.49-.68.74-.74.77-1.61,1.58-2.44,2.39C15.32,14.85,17.47,14.83,18.24,14.14Z"/><path class="cls-1" d="M.57,12.89c-.72-2.58-.3-4,1-4.6a15.88,15.88,0,0,1,3.81-.83s1.67.12,1.38.83c-.11,2.07-.6,3-1.38,3.14A25.57,25.57,0,0,1,.57,12.89Z"/><path class="cls-1" d="M0,2.33c4.26.5,6.38,1.25,6.77,2.2A4,4,0,0,1,6.74,7,1.67,1.67,0,0,1,5,7.46C1.79,6.67.44,6.06.57,5.58A6.94,6.94,0,0,1,0,2.33Z"/><path class="cls-1" d="M7.5,2C9.57,1.29,11.43.72,12.86.31a8.17,8.17,0,0,1,5.47.36c1.62.76,3.73,1.81,5.45,2.82,0,0-11.43,1.46-11.78,1A44.87,44.87,0,0,0,7.5,2Z"/><ellipse cx="24.82" cy="6.62" rx="1.04" ry="0.63"/><path d="M12.69,3.91A5.72,5.72,0,0,0,12,10.38L8.53,8.76a6.07,6.07,0,0,1,.31-2.91A27.19,27.19,0,0,1,12.69,3.91Z"/><path d="M14.08,3.28a23.93,23.93,0,0,0-.52,7.84c.17.1,3.09,1,3.09,1a19.06,19.06,0,0,1,1.24-9.85Z"/><path d="M20.31,2.24a14.34,14.34,0,0,0-1,10.21c1.64-.08,2.63-.2,2.78-.4a15,15,0,0,1,1.23-9A11.54,11.54,0,0,0,20.31,2.24Z"/></g></g></g></svg>