<svg xmlns="http://www.w3.org/2000/svg" viewBox="0 0 19.33 15.36"><defs><style>.cls-1{fill:#f1bd65;}</style></defs><g id="Layer_2" data-name="Layer 2"><g id="page_4" data-name="page 4"><g id="fish"><path class="cls-1" d="M9,2.59C8.29,2.12,5.84,1,4.69,1.36A5.14,5.14,0,0,0,.22,4.63c-.74,2.86.5,4.46,2.12,5.83.22.16.44.3.66.43a5.28,5.28,0,0,0,4.18.53l7.35-2.23L11.26,5A21.2,21.2,0,0,0,9,2.59Z"/><path class="cls-1" d="M4.52,13.26l-.88-2.21,3.92-.17c.07.27.16.55.25.85.29.88.65,1.83,1,2.76C6.24,14.49,4.85,14.07,4.52,13.26Z"/><path class="cls-1" d="M16.32,15.36c1.11-2.36,1.2-3.86.47-4.65a8.15,8.15,0,0,0-2.26-1.52s-1.12-.2-1.11.55c-.45,2-.38,3.06.11,3.29A13.54,13.54,0,0,0,16.32,15.36Z"/><path class="cls-1" d="M19.33,5.24c-2.89-.32-4.46,0-4.95.86a5.84,5.84,0,0,0-.59,2.37s.27,1,1,.81c2.25-.17,3.28-.51,3.31-1A9.62,9.62,0,0,0,19.33,5.24Z"/><path class="cls-1" d="M14.53,3.54c-1.16-1.1-2.22-2-3-2.67A3.88,3.88,0,0,0,7.83.2,43.39,43.39,0,0,0,3.58,1.91S10.65,5.47,11,5.13A28.58,28.58,0,0,1,14.53,3.54Z"/><ellipse cx="2.13" cy="4.75" rx="0.63" ry="0.7" transform="translate(-3.07 4.93) rotate(-67.89)"/><path d="M10.69,4.39a8.08,8.08,0,0,1-1.17,6.4l2.65-.92A8.84,8.84,0,0,0,12.71,7,19.55,19.55,0,0,0,10.69,4.39Z"/><path d="M9.94,3.52a35.65,35.65,0,0,1-1.62,7.69c-.14.06-2.25.36-2.25.36A27.92,27.92,0,0,0,7.73,1.8Z"/><path d="M6.15,1.34A20.81,20.81,0,0,1,4.27,11.43c-1-.38-1.66-.69-1.7-.91A21.7,21.7,0,0,0,4,1.53,6.19,6.19,0,0,1,6.15,1.34Z"/></g></g></g></svg>