<svg xmlns="http://www.w3.org/2000/svg" viewBox="0 0 35.35 28.72"><defs><style>.cls-1{fill:#5e0000;}.cls-2{fill:#f6d779;}</style></defs><g id="Layer_2" data-name="Layer 2"><g id="page_4" data-name="page 4"><g id="fish"><path class="cls-1" d="M20.26,5.2c1.47-.51,6.5-1.33,8.43,0a10.42,10.42,0,0,1,6.66,8.59c0,5.78-3,8.12-6.66,9.81a11.7,11.7,0,0,1-1.42.46,9.74,9.74,0,0,1-7.9-1.27L6.94,14.61l8-6.14A38.14,38.14,0,0,1,20.26,5.2Z"/><path class="cls-1" d="M23.36,27.69,26,24l-7.11-2.45c-.26.47-.55,1-.87,1.46-.94,1.5-2.06,3.1-3.12,4.67C19.63,29.08,22.39,29,23.36,27.69Z"/><path class="cls-1" d="M.72,25.24c-.92-5-.38-7.91,1.34-9a14.55,14.55,0,0,1,4.88-1.63s2.14.23,1.77,1.63c-.14,4-.76,6-1.77,6.14A24.45,24.45,0,0,1,.72,25.24Z"/><path class="cls-1" d="M0,4.56C5.45,5.54,8.17,7,8.68,8.87a11.7,11.7,0,0,1,0,4.78s-1,1.77-2.29,1c-4-1.54-5.78-2.75-5.61-3.68A20.31,20.31,0,0,1,0,4.56Z"/><path class="cls-1" d="M9.6,4c2.66-1.46,5-2.58,6.87-3.38a7.14,7.14,0,0,1,7,.72,83,83,0,0,1,7,5.52s-14.64,2.86-15.09,2S9.6,4,9.6,4Z"/><ellipse cx="31.8" cy="12.97" rx="1.33" ry="1.23"/><path class="cls-2" d="M16.26,7.66a16.1,16.1,0,0,0-.89,12.67l-4.44-3.17a17.87,17.87,0,0,1,.39-5.7C11.67,10.89,14,9.27,16.26,7.66Z"/><path class="cls-2" d="M18,6.43c-1.05,5.73-.89,15.16-.67,15.35s4,1.9,4,1.9a55.58,55.58,0,0,1,1.59-19.3Z"/><path class="cls-2" d="M26,4.38a41.68,41.68,0,0,0-1.34,20c2.1-.15,3.37-.4,3.56-.79A43.23,43.23,0,0,1,29.83,5.9,11.16,11.16,0,0,0,26,4.38Z"/></g></g></g></svg>