<svg xmlns="http://www.w3.org/2000/svg" viewBox="0 0 53.61 35.71"><defs><style>.cls-1{fill:#f1bd65;}</style></defs><g id="Layer_2" data-name="Layer 2"><g id="page_4" data-name="page 4"><g id="fish"><path class="cls-1" d="M22.89,6.47c-2.23-.64-9.87-1.66-12.79,0C3.67,8.72.87,12.52,0,17.15c0,7.18,4.6,10.1,10.1,12.2a21.52,21.52,0,0,0,2.16.57,17.56,17.56,0,0,0,12-1.59L43.09,18.16,31,10.54S25.12,7.11,22.89,6.47Z"/><path class="cls-1" d="M18.18,34.44l-4-4.58,10.77-3.05c.4.59.85,1.2,1.32,1.82,1.43,1.86,3.13,3.85,4.74,5.81C23.84,36.17,19.66,36.11,18.18,34.44Z"/><path class="cls-1" d="M52.52,31.39c1.39-6.28.58-9.84-2-11.19a26.28,26.28,0,0,0-7.41-2s-3.25.29-2.69,2c.22,5,1.16,7.41,2.69,7.63A41.83,41.83,0,0,0,52.52,31.39Z"/><path class="cls-1" d="M53.61,5.67c-8.27,1.22-12.39,3-13.16,5.36a12.12,12.12,0,0,0,.08,6S42,19.17,44,18.17c6.15-1.92,8.78-3.42,8.52-4.58A20.87,20.87,0,0,0,53.61,5.67Z"/><path class="cls-1" d="M39.05,4.94c-4-1.8-7.64-3.2-10.42-4.2A12.93,12.93,0,0,0,18,1.64C14.85,3.49,10.75,6,7.41,8.5c0,0,22.21,3.56,22.89,2.55S39.05,4.94,39.05,4.94Z"/><ellipse cx="5.39" cy="16.13" rx="2.02" ry="1.53"/><path d="M29,9.52Q33.6,17.4,30.3,25.28L37,21.34a18.46,18.46,0,0,0-.58-7.09C35.92,13.54,32.42,11.52,29,9.52Z"/><path d="M26.26,8c1.58,7.13,1.34,18.86,1,19.09s-6,2.37-6,2.37c1.05-7.54.05-15.59-2.42-24Z"/><path d="M14.14,5.45a43,43,0,0,1,2,24.88c-3.18-.19-5.11-.5-5.39-1,.92-7.73.33-15.12-2.4-22A19.18,19.18,0,0,1,14.14,5.45Z"/></g></g></g></svg>