<svg xmlns="http://www.w3.org/2000/svg" viewBox="0 0 27.73 19.72"><defs><style>.cls-1{fill:#f1bd65;}</style></defs><g id="Layer_2" data-name="Layer 2"><g id="page_4" data-name="page 4"><g id="fish"><path class="cls-1" d="M11.84,3.57c-1.15-.35-5.1-.91-6.62,0C1.9,4.81.45,6.91,0,9.47c0,4,2.38,5.58,5.22,6.74a9.9,9.9,0,0,0,1.12.31,8.58,8.58,0,0,0,6.2-.87L22.29,10,16,5.82A31.17,31.17,0,0,0,11.84,3.57Z"/><path class="cls-1" d="M9.4,19,7.31,16.49l5.58-1.69c.2.33.43.67.68,1,.74,1,1.62,2.12,2.45,3.21C12.33,20,10.17,19.94,9.4,19Z"/><path class="cls-1" d="M27.17,17.33c.72-3.47.3-5.43-1.05-6.18A12.72,12.72,0,0,0,22.29,10s-1.68.16-1.39,1.12c.11,2.78.6,4.09,1.39,4.22A20.46,20.46,0,0,0,27.17,17.33Z"/><path class="cls-1" d="M27.73,3.13c-4.28.67-6.41,1.68-6.8,3a7.14,7.14,0,0,0,0,3.29s.78,1.21,1.8.65C25.94,9,27.3,8.14,27.16,7.5A12,12,0,0,0,27.73,3.13Z"/><path class="cls-1" d="M20.2,2.73C18.11,1.73,16.25,1,14.81.41A6.32,6.32,0,0,0,9.31.9,66.63,66.63,0,0,0,3.83,4.7s11.49,2,11.84,1.4A44,44,0,0,1,20.2,2.73Z"/><ellipse cx="2.79" cy="8.91" rx="1.04" ry="0.84"/><path d="M15,5.26a9.8,9.8,0,0,1,.69,8.7l3.49-2.17a10.82,10.82,0,0,0-.31-3.92A25.89,25.89,0,0,0,15,5.26Z"/><path d="M13.58,4.41A42.51,42.51,0,0,1,14.1,15c-.17.13-3.1,1.31-3.1,1.31A33.7,33.7,0,0,0,9.75,3Z"/><path d="M7.31,3a25.24,25.24,0,0,1,1,13.74c-1.64-.11-2.64-.28-2.79-.54A26.2,26.2,0,0,0,4.33,4.05,9.41,9.41,0,0,1,7.31,3Z"/></g></g></g></svg>