<svg xmlns="http://www.w3.org/2000/svg" viewBox="0 0 27.73 21.97"><defs><style>.cls-1{fill:#020202;}.cls-2{fill:#c11824;}.cls-3{fill:#f8f7f6;}.cls-4{fill:#fffcf9;}.cls-5{fill:#fbfaf9;}</style></defs><g id="Layer_2" data-name="Layer 2"><g id="page_4" data-name="page 4"><g id="industry"><ellipse class="cls-1" cx="2.99" cy="9.22" rx="1.42" ry="1.5"/></g><g id="fish"><ellipse cx="2.79" cy="9.92" rx="1.04" ry="0.94"/><path class="cls-2" d="M11.84,4c-1.15-.4-5.1-1-6.62,0A8,8,0,0,0,0,10.55c0,4.42,2.38,6.21,5.22,7.5.38.14.75.26,1.12.36a7.9,7.9,0,0,0,6.2-1l9.75-6.26L16,6.48A29.35,29.35,0,0,0,11.84,4Z"/><path class="cls-2" d="M9.4,21.18,7.31,18.37l5.58-1.88c.2.36.43.74.68,1.12.74,1.15,1.62,2.37,2.45,3.57C12.33,22.24,10.17,22.21,9.4,21.18Z"/><path class="cls-2" d="M27.17,19.3c.72-3.86.3-6-1.05-6.88a12,12,0,0,0-3.83-1.25s-1.68.18-1.39,1.25c.11,3.09.6,4.56,1.39,4.69A19.09,19.09,0,0,0,27.17,19.3Z"/><path class="cls-2" d="M27.73,3.49c-4.28.75-6.41,1.87-6.8,3.29a8.79,8.79,0,0,0,0,3.66s.78,1.35,1.8.74c3.18-1.19,4.54-2.11,4.4-2.82A14.81,14.81,0,0,0,27.73,3.49Z"/><path class="cls-2" d="M20.2,3c-2.09-1.11-3.95-2-5.39-2.58A5.73,5.73,0,0,0,9.31,1,66.4,66.4,0,0,0,3.83,5.23S15.32,7.42,15.67,6.79A45,45,0,0,1,20.2,3Z"/><path class="cls-3" d="M15,5.86a12,12,0,0,1,.69,9.69l3.49-2.42a13.41,13.41,0,0,0-.31-4.37A26.8,26.8,0,0,0,15,5.86Z"/><path class="cls-4" d="M13.58,4.92a52.67,52.67,0,0,1,.52,11.74c-.17.14-3.1,1.45-3.1,1.45A41.67,41.67,0,0,0,9.75,3.35Z"/><path class="cls-5" d="M7.31,3.35a31.14,31.14,0,0,1,1,15.3c-1.64-.11-2.64-.31-2.79-.6A32.3,32.3,0,0,0,4.33,4.51,9,9,0,0,1,7.31,3.35Z"/></g></g></g></svg>