<svg xmlns="http://www.w3.org/2000/svg" viewBox="0 0 84.58 61.28"><defs><style>.cls-1{fill:#f1bd65;}.cls-2{fill:#f8f7f6;}.cls-3{fill:#fffcf9;}.cls-4{fill:#fbfaf9;}</style></defs><g id="Layer_2" data-name="Layer 2"><g id="page_4" data-name="page 4"><g id="fish"><path class="cls-1" d="M48.47,11.1C52,10,64,8.26,68.65,11.1,78.79,15,83.21,21.48,84.58,29.42c0,12.33-7.27,17.33-15.93,20.94a34.36,34.36,0,0,1-3.41,1,25.76,25.76,0,0,1-18.9-2.73L16.6,31.17,35.72,18.08S44.94,12.2,48.47,11.1Z"/><path class="cls-1" d="M55.9,59.08l6.37-7.85L45.28,46c-.63,1-1.34,2-2.09,3.12-2.25,3.2-4.93,6.6-7.47,10C47,62.05,53.56,62,55.9,59.08Z"/><path class="cls-1" d="M1.73,53.85C-.47,43.08.82,37,4.92,34.66A38,38,0,0,1,16.6,31.17s5.12.49,4.25,3.49C20.5,43.28,19,47.36,16.6,47.74,13.21,50,7.86,52,1.73,53.85Z"/><path class="cls-1" d="M0,9.74C13.05,11.82,19.56,15,20.76,18.92a22.55,22.55,0,0,1-.11,10.21s-2.36,3.77-5.47,2C5.47,27.88,1.34,25.3,1.75,23.32.38,19.92,0,15.11,0,9.74Z"/><path class="cls-1" d="M23,8.48C29.34,5.38,35,3,39.41,1.27A19,19,0,0,1,56.19,2.81a202.43,202.43,0,0,1,16.7,11.78S37.85,20.7,36.78,19,23,8.48,23,8.48Z"/><ellipse cx="76.08" cy="27.68" rx="3.19" ry="2.62"/><path class="cls-2" d="M38.91,16.33q-7.33,13.53-2.13,27.05L26.16,36.62c-.3-4.89-.09-9.08.92-12.18C27.91,23.23,33.43,19.77,38.91,16.33Z"/><path class="cls-3" d="M43.16,13.72C40.65,25.94,41,46.06,41.56,46.47S51,50.53,51,50.53c-1.66-12.94-.09-26.75,3.81-41.18Z"/><path class="cls-4" d="M62.27,9.35A79.89,79.89,0,0,0,59.08,52c5-.33,8.06-.87,8.5-1.68-1.44-13.27-.52-25.94,3.79-37.78A28.82,28.82,0,0,0,62.27,9.35Z"/></g></g></g></svg>