<svg xmlns="http://www.w3.org/2000/svg" viewBox="0 0 61.19 49.25"><defs><style>.cls-1{fill:#007a00;}.cls-2{fill:#f8f7f6;}.cls-3{fill:#fffcf9;}.cls-4{fill:#fbfaf9;}</style></defs><g id="Layer_2" data-name="Layer 2"><g id="page_4" data-name="page 4"><g id="fish"><path class="cls-1" d="M26.13,8.92c-2.55-.89-11.27-2.28-14.6,0C4.18,12,1,17.27,0,23.64c0,9.91,5.25,13.93,11.53,16.83a21.26,21.26,0,0,0,2.46.79,17.05,17.05,0,0,0,13.67-2.19l21.52-14L35.35,14.53S28.67,9.81,26.13,8.92Z"/><path class="cls-1" d="M20.75,47.48l-4.61-6.31L28.43,37c.46.81,1,1.65,1.51,2.51,1.63,2.57,3.57,5.3,5.41,8C27.2,49.87,22.44,49.8,20.75,47.48Z"/><path class="cls-1" d="M59.93,43.28c1.6-8.66.67-13.56-2.3-15.43a25.49,25.49,0,0,0-8.45-2.8s-3.71.39-3.08,2.8c.26,6.93,1.33,10.21,3.08,10.52C51.63,40.17,55.5,41.76,59.93,43.28Z"/><path class="cls-1" d="M61.19,7.82C51.75,9.5,47,12,46.17,15.2a20,20,0,0,0,.08,8.21s1.71,3,4,1.64c7-2.65,10-4.72,9.71-6.31C60.91,16,61.19,12.14,61.19,7.82Z"/><path class="cls-1" d="M44.57,6.82C40,4.33,35.84,2.4,32.67,1A12.51,12.51,0,0,0,20.54,2.26,151,151,0,0,0,8.45,11.72s25.36,4.91,26.13,3.51S44.57,6.82,44.57,6.82Z"/><path class="cls-2" d="M33,13.13a27.38,27.38,0,0,1,1.54,21.73l7.68-5.43a30.26,30.26,0,0,0-.67-9.79C41,18.67,37,15.89,33,13.13Z"/><path class="cls-3" d="M30,11c1.81,9.83,1.53,26,1.15,26.32s-6.85,3.27-6.85,3.27c1.2-10.4.06-21.5-2.76-33.09Z"/><path class="cls-4" d="M16.14,7.52a71,71,0,0,1,2.3,34.3c-3.62-.26-5.83-.69-6.15-1.35,1.05-10.66.38-20.85-2.74-30.36A19.33,19.33,0,0,1,16.14,7.52Z"/></g></g></g></svg>