<svg xmlns="http://www.w3.org/2000/svg" viewBox="0 0 126.81 93.08"><defs><style>.cls-1,.cls-7{fill:none;}.cls-1{stroke:#7b5e25;stroke-width:2px;}.cls-1,.cls-6,.cls-7{stroke-miterlimit:10;}.cls-2{fill:#ca4eb1;}.cls-3{fill:#634e08;}.cls-4{fill:#fdb43d;}.cls-5{fill:#996a46;}.cls-6{fill:#faf9fb;}.cls-6,.cls-7{stroke:#000;stroke-width:0.25px;}</style></defs><g id="Layer_2" data-name="Layer 2"><g id="page_5" data-name="page 5"><g id="house"><line class="cls-1" x1="102.53" y1="56.96" x2="126.81" y2="56.96"/><rect class="cls-2" x="102.53" y="57.66" width="24.28" height="35.08"/><rect class="cls-2" x="1.35" y="25.63" width="102.53" height="67.45"/><polygon class="cls-3" points="105.23 26.98 94.96 10.79 10.27 10.79 0 26.98 105.23 26.98"/><rect class="cls-4" x="83.64" y="1.25" width="10.79" height="14.94"/><ellipse class="cls-5" cx="89.04" cy="1.25" rx="5.4" ry="1.25"/><rect class="cls-6" x="8.09" y="37.77" width="8.09" height="21.58"/><line class="cls-7" x1="8.09" y1="48.57" x2="16.19" y2="48.57"/><line class="cls-7" x1="12.14" y1="37.77" x2="12.14" y2="59.36"/><rect class="cls-6" x="70.15" y="64.75" width="8.09" height="21.58"/><line class="cls-7" x1="70.15" y1="75.55" x2="78.25" y2="75.55"/><line class="cls-7" x1="74.2" y1="64.75" x2="74.2" y2="86.34"/><rect class="cls-6" x="89.04" y="64.75" width="8.09" height="21.58"/><line class="cls-7" x1="89.04" y1="75.55" x2="97.13" y2="75.55"/><line class="cls-7" x1="93.08" y1="64.75" x2="93.08" y2="86.34"/><rect class="cls-6" x="26.98" y="37.77" width="8.09" height="21.58"/><line class="cls-7" x1="26.98" y1="48.57" x2="35.08" y2="48.57"/><line class="cls-7" x1="31.03" y1="37.77" x2="31.03" y2="59.36"/><rect class="cls-6" x="48.57" y="37.77" width="8.09" height="21.58"/><line class="cls-7" x1="48.57" y1="48.57" x2="56.66" y2="48.57"/><line class="cls-7" x1="52.61" y1="37.77" x2="52.61" y2="59.36"/><rect class="cls-6" x="70.15" y="37.77" width="8.09" height="21.58"/><line class="cls-7" x1="70.15" y1="48.57" x2="78.25" y2="48.57"/><line class="cls-7" x1="74.2" y1="37.77" x2="74.2" y2="59.36"/><rect class="cls-6" x="89.04" y="37.77" width="8.09" height="21.58"/><line class="cls-7" x1="89.04" y1="48.57" x2="97.13" y2="48.57"/><line class="cls-7" x1="93.08" y1="37.77" x2="93.08" y2="59.36"/><rect class="cls-6" x="48.57" y="64.75" width="8.09" height="21.58"/><line class="cls-7" x1="48.57" y1="75.55" x2="56.66" y2="75.55"/><line class="cls-7" x1="52.61" y1="64.75" x2="52.61" y2="86.34"/><rect class="cls-6" x="29.68" y="64.75" width="8.09" height="21.58"/><line class="cls-7" x1="29.68" y1="75.55" x2="37.77" y2="75.55"/><line class="cls-7" x1="33.73" y1="64.75" x2="33.73" y2="86.34"/><rect class="cls-6" x="8.09" y="64.75" width="8.09" height="21.58"/><line class="cls-7" x1="8.09" y1="75.55" x2="16.19" y2="75.55"/><line class="cls-7" x1="12.14" y1="64.75" x2="12.14" y2="86.34"/></g></g></g></svg>