<svg xmlns="http://www.w3.org/2000/svg" viewBox="0 0 89.04 121.07"><defs><style>.cls-1{fill:#76276f;}.cls-2{fill:#996a46;}.cls-3{fill:#8d6a34;}.cls-4{fill:#faf9fb;}.cls-4,.cls-5{stroke:#000;stroke-miterlimit:10;stroke-width:0.25px;}.cls-5{fill:none;}</style></defs><g id="Layer_2" data-name="Layer 2"><g id="page_5" data-name="page 5"><g id="house"><rect class="cls-1" x="8.09" y="32.03" width="70.15" height="89.04"/><rect class="cls-1" x="60.71" y="1.25" width="10.79" height="14.94"/><ellipse class="cls-2" cx="66.1" cy="1.25" rx="5.4" ry="1.25"/><polygon class="cls-3" points="0 32.03 8.09 15.84 80.94 15.84 89.04 32.03 0 32.03"/><rect class="cls-4" x="17.54" y="39.47" width="16.19" height="21.58"/><line class="cls-5" x1="17.54" y1="50.26" x2="33.73" y2="50.26"/><line class="cls-5" x1="25.63" y1="39.47" x2="25.63" y2="61.06"/><rect class="cls-4" x="47.22" y="39.47" width="16.19" height="21.58"/><line class="cls-5" x1="47.22" y1="50.26" x2="63.41" y2="50.26"/><line class="cls-5" x1="55.31" y1="39.47" x2="55.31" y2="61.06"/><rect class="cls-4" x="17.54" y="74.55" width="16.19" height="21.58"/><line class="cls-5" x1="17.54" y1="85.34" x2="33.73" y2="85.34"/><line class="cls-5" x1="25.63" y1="74.55" x2="25.63" y2="96.13"/><rect class="cls-4" x="47.22" y="74.55" width="16.19" height="21.58"/><line class="cls-5" x1="47.22" y1="85.34" x2="63.41" y2="85.34"/><line class="cls-5" x1="55.31" y1="74.55" x2="55.31" y2="96.13"/></g></g></g></svg>