<svg xmlns="http://www.w3.org/2000/svg" viewBox="0 0 113.32 95.08"><defs><style>.cls-1{fill:#fdb43d;}.cls-2{fill:#634e08;}.cls-3{fill:#996a46;}.cls-4{fill:#faf9fb;}.cls-4,.cls-5{stroke:#000;stroke-miterlimit:10;stroke-width:0.25px;}.cls-5{fill:none;}</style></defs><g id="Layer_2" data-name="Layer 2"><g id="page_5" data-name="page 5"><g id="house"><rect class="cls-1" x="9.44" y="27.63" width="102.53" height="67.45"/><polygon class="cls-2" points="113.32 26.98 102.27 10.79 11.06 10.79 0 26.98 113.32 26.98"/><rect class="cls-1" x="91.74" y="1.25" width="10.79" height="14.94"/><ellipse class="cls-3" cx="97.13" cy="1.25" rx="5.4" ry="1.25"/><rect class="cls-4" x="16.19" y="37.77" width="8.09" height="21.58"/><line class="cls-5" x1="16.19" y1="48.57" x2="24.28" y2="48.57"/><line class="cls-5" x1="20.24" y1="37.77" x2="20.24" y2="59.36"/><rect class="cls-4" x="35.08" y="37.77" width="8.09" height="21.58"/><line class="cls-5" x1="35.08" y1="48.57" x2="43.17" y2="48.57"/><line class="cls-5" x1="39.12" y1="37.77" x2="39.12" y2="59.36"/><rect class="cls-4" x="56.66" y="37.77" width="8.09" height="21.58"/><line class="cls-5" x1="56.66" y1="48.57" x2="64.75" y2="48.57"/><line class="cls-5" x1="60.71" y1="37.77" x2="60.71" y2="59.36"/><rect class="cls-4" x="78.25" y="37.77" width="8.09" height="21.58"/><line class="cls-5" x1="78.25" y1="48.57" x2="86.34" y2="48.57"/><line class="cls-5" x1="82.29" y1="37.77" x2="82.29" y2="59.36"/><rect class="cls-4" x="97.13" y="37.77" width="8.09" height="21.58"/><line class="cls-5" x1="97.13" y1="48.57" x2="105.23" y2="48.57"/><line class="cls-5" x1="101.18" y1="37.77" x2="101.18" y2="59.36"/><rect class="cls-4" x="56.66" y="64.75" width="8.09" height="21.58"/><line class="cls-5" x1="56.66" y1="75.55" x2="64.75" y2="75.55"/><line class="cls-5" x1="60.71" y1="64.75" x2="60.71" y2="86.34"/><rect class="cls-4" x="37.77" y="64.75" width="8.09" height="21.58"/><line class="cls-5" x1="37.77" y1="75.55" x2="45.87" y2="75.55"/><line class="cls-5" x1="41.82" y1="64.75" x2="41.82" y2="86.34"/><rect class="cls-4" x="16.19" y="64.75" width="8.09" height="21.58"/><line class="cls-5" x1="16.19" y1="75.55" x2="24.28" y2="75.55"/><line class="cls-5" x1="20.24" y1="64.75" x2="20.24" y2="86.34"/></g></g></g></svg>