<svg xmlns="http://www.w3.org/2000/svg" viewBox="0 0 174.5 51.61"><defs><style>.cls-1{fill:#131547;}.cls-2{fill:teal;}.cls-3{fill:#e5e5e5;}</style></defs><g id="Layer_2" data-name="Layer 2"><g id="page_5" data-name="page 5"><g id="aeroplane"><path class="cls-1" d="M25.5,8.33l126,6h18c2,5-10.58,23.87-33,25l-125,1c-10.15-3.61-13.33-8-10-17Q8.72,12.34,25.5,8.33Z"/><path class="cls-2" d="M151.5,16.33s8-12,14-15,9,0,9,0l-6,15Z"/><path class="cls-3" d="M20.49,9.83c11.87,0,19.42,8.71,8.63,17.42L0,28.33C1,20.53,10.28,12.67,20.49,9.83Z"/><polygon class="cls-2" points="50 29.27 92.1 28.33 136.5 51.33 129.52 49.83 50 29.27"/><path class="cls-2" d="M136.54,51.32l-86-22c-2.57,1.16-3.6,3-2,6l88.1,16.28Z"/><circle class="cls-3" cx="49" cy="20.83" r="5"/><circle class="cls-3" cx="62" cy="20.83" r="5"/><circle class="cls-3" cx="75" cy="20.83" r="5"/><circle class="cls-3" cx="88" cy="20.83" r="5"/><circle class="cls-3" cx="100" cy="20.83" r="5"/><circle class="cls-3" cx="112" cy="20.83" r="5"/><circle class="cls-3" cx="124" cy="20.83" r="5"/></g></g></g></svg>