<svg xmlns="http://www.w3.org/2000/svg" viewBox="0 0 109.5 83.71"><defs><style>.cls-1{fill:#eeeb92;stroke:#020202;}.cls-1,.cls-2{stroke-miterlimit:10;}.cls-2{fill:#fff;stroke:#fff;}</style></defs><g id="Layer_2" data-name="Layer 2"><g id="page_1" data-name="page 1"><g id="vehicles"><g id="airplane"><path class="cls-1" d="M58.84,17.16c5-11.33,1.77-9.82.93-10.63-8.5-1.3-13.36,1.67-17,6Z"/><path class="cls-1" d="M15.13,10.51c-1.06-5.59,41,6.54,77.54,15.08L59.57,40.76,16.05,19.2A48.34,48.34,0,0,0,15.13,10.51Z"/><path class="cls-1" d="M54.2,62c5.55.29,11-.33,16.28-4.92C72.89,54.58,72,49.9,69.24,44Z"/><path class="cls-1" d="M100.3,29.11,70.75,43.3C53.4,67.73,39.6,84.28,33.94,83.16c2-9,6.89-17.31,9.55-31.21L16.76,58.5C11.85,69.73,7.75,77,5.25,76.18-.85,76.61.58,57.54.8,41.6L35.66,31.2,46.93,34,68.05,24l1-3,1.47-4.27S98.22-.48,104.67.54,110.91,17.84,100.3,29.11Z"/><rect class="cls-2" x="82.7" y="18.13" width="14.38" height="7.37" rx="1.02" transform="translate(180.46 3.05) rotate(154.65)"/><rect class="cls-2" x="65.65" y="30.27" width="5.39" height="5.53" rx="1.02" transform="translate(144.27 33.63) rotate(154.65)"/><rect class="cls-2" x="57.53" y="34.12" width="5.39" height="5.53" rx="1.02" transform="translate(130.45 44.44) rotate(154.65)"/><rect class="cls-2" x="47.78" y="38.74" width="5.39" height="5.53" rx="1.02" transform="translate(113.87 57.4) rotate(154.65)"/><rect class="cls-2" x="39.66" y="42.59" width="5.39" height="5.53" rx="1.02" transform="translate(100.05 68.2) rotate(154.65)"/></g></g></g></g></svg>