<svg xmlns="http://www.w3.org/2000/svg" viewBox="0 0 74.2 60.88"><defs><style>.cls-1,.cls-2{fill:#ececec;stroke-miterlimit:10;stroke-width:0.25px;}.cls-1{stroke:#000;}.cls-2{stroke:#070707;}</style></defs><g id="Layer_2" data-name="Layer 2"><g id="page_1" data-name="page 1"><g id="page_1_earth" data-name="page 1 earth"><ellipse class="cls-1" cx="60.36" cy="45.87" rx="1.04" ry="2.19"/><ellipse class="cls-1" cx="54.4" cy="44.37" rx="1.04" ry="2.19"/><ellipse class="cls-1" cx="63.95" cy="53.56" rx="1.04" ry="2.19"/><ellipse class="cls-1" cx="13.36" cy="42.87" rx="1.04" ry="2.19"/><ellipse class="cls-1" cx="7.4" cy="41.37" rx="1.04" ry="2.19"/><ellipse class="cls-1" cx="16.95" cy="50.56" rx="1.04" ry="2.19"/><ellipse class="cls-1" cx="32.36" cy="50.87" rx="1.04" ry="2.19"/><ellipse class="cls-1" cx="26.4" cy="49.37" rx="1.04" ry="2.19"/><ellipse class="cls-1" cx="35.95" cy="58.56" rx="1.04" ry="2.19"/><ellipse class="cls-1" cx="41.36" cy="43.87" rx="1.04" ry="2.19"/><ellipse class="cls-1" cx="35.4" cy="42.37" rx="1.04" ry="2.19"/><ellipse class="cls-1" cx="44.95" cy="51.56" rx="1.04" ry="2.19"/></g><g id="vehicles"><g id="clouds"><path class="cls-2" d="M19.68,6.08c2-7.4,13.16-5.81,13.16-5.81S44.79.44,50.71,7.78q11.52.46,18.52,6.54C73.7,18.2,75.4,22.92,73,26c-2,2.55-6.27,3.49-12.31,3.12-1.17,4.77-5.56,7.19-12.81,7.52a32.62,32.62,0,0,1-21-7.93,27.1,27.1,0,0,1-18.62-4C.57,19.81-1.95,12.68,1.92,8.35,4.68,5.26,10,4.06,19.68,6.08Z"/></g></g></g></g></svg>