<svg xmlns="http://www.w3.org/2000/svg" viewBox="0 0 98.56 73.99"><defs><style>.cls-1,.cls-2{fill:#ececec;stroke-miterlimit:10;stroke-width:0.25px;}.cls-1{stroke:#000;}.cls-2{stroke:#070707;}</style></defs><g id="Layer_2" data-name="Layer 2"><g id="page_1" data-name="page 1"><g id="page_1_earth" data-name="page 1 earth"><ellipse class="cls-1" cx="21.46" cy="50.79" rx="1.04" ry="2.19"/><ellipse class="cls-1" cx="21.46" cy="59.98" rx="1.04" ry="2.19"/><ellipse class="cls-1" cx="21.46" cy="71.67" rx="1.04" ry="2.19"/><ellipse class="cls-1" cx="29.23" cy="44.61" rx="1.04" ry="2.19"/><ellipse class="cls-1" cx="31.01" cy="54.13" rx="1.04" ry="2.19"/><ellipse class="cls-1" cx="36.58" cy="62.48" rx="1.04" ry="2.19"/><ellipse class="cls-1" cx="31.01" cy="65.83" rx="1.04" ry="2.19"/><ellipse class="cls-1" cx="34.58" cy="52.28" rx="1.04" ry="2.19"/><ellipse class="cls-1" cx="43.33" cy="52.28" rx="1.04" ry="2.19"/><ellipse class="cls-1" cx="52.5" cy="59.14" rx="1.04" ry="2.19"/><ellipse class="cls-1" cx="44.54" cy="61.65" rx="1.04" ry="2.19"/><ellipse class="cls-1" cx="54.09" cy="70.84" rx="1.04" ry="2.19"/><ellipse class="cls-1" cx="40.56" cy="70.84" rx="1.04" ry="2.19"/><ellipse class="cls-1" cx="72.78" cy="50.61" rx="1.04" ry="2.19"/><ellipse class="cls-1" cx="66.82" cy="49.12" rx="1.04" ry="2.19"/><ellipse class="cls-1" cx="76.37" cy="58.31" rx="1.04" ry="2.19"/><ellipse class="cls-1" cx="62.84" cy="58.31" rx="1.04" ry="2.19"/><ellipse class="cls-1" cx="55.27" cy="50.61" rx="1.04" ry="2.19"/></g><g id="vehicles"><g id="clouds"><path class="cls-2" d="M43.51,5.26c5.32-4.18,12.17-5.61,20.15-5,7.63.54,11.91,4.46,14,10.57,10.55-1.5,16.53-.2,19.35,3a5.41,5.41,0,0,1,.44,6.75c-4.21,6.84-12.71,6.91-22.32,5.22-3.51,3.59-9.3,5.41-16.5,6.15-4.15.5-7.87.21-10.89-1.3l-.65.42c-7.9,5-21.16,4.51-27.88-.64a21.43,21.43,0,0,1-1.92-1.65c-7.34.6-12.58-.31-15.38-3-2.49-2.37-2.28-5.42,0-8,2.91-3.34,8.3-4.92,17.22-4,3.53-3.65,7.16-7.15,12.1-8.54A23.43,23.43,0,0,1,43.51,5.26Z"/></g></g></g></g></svg>