<svg xmlns="http://www.w3.org/2000/svg" viewBox="0 0 74.56 35.12"><defs><style>.cls-1{fill:#8d8c8c;}.cls-2{fill:#fffcfc;}</style></defs><g id="Layer_2" data-name="Layer 2"><g id="page_4" data-name="page 4"><g id="industry"><polygon class="cls-1" points="0 15.05 0 35.12 44.15 35.12 44.15 15.05 21.86 0 0 15.05"/><rect class="cls-2" x="8.55" y="15.89" width="3.8" height="3.34"/><rect class="cls-2" x="14.26" y="15.89" width="3.8" height="3.34"/><rect class="cls-2" x="19.96" y="15.89" width="3.8" height="3.34"/><rect class="cls-2" x="25.66" y="15.89" width="3.8" height="3.34"/><rect class="cls-2" x="32.31" y="15.89" width="3.8" height="3.34"/><polygon class="cls-1" points="30.41 15.05 30.41 35.12 74.56 35.12 74.56 15.05 52.27 0 30.41 15.05"/><rect class="cls-2" x="38.02" y="15.89" width="3.8" height="3.34"/><rect class="cls-2" x="43.72" y="15.89" width="3.8" height="3.34"/><rect class="cls-2" x="49.42" y="15.89" width="3.8" height="3.34"/><rect class="cls-2" x="55.12" y="15.89" width="3.8" height="3.34"/><rect class="cls-2" x="61.78" y="15.89" width="3.8" height="3.34"/></g></g></g></svg>