<svg xmlns="http://www.w3.org/2000/svg" viewBox="0 0 960 217"><defs><style>.cls-1{fill:#00ace7;}</style></defs><g id="Layer_2" data-name="Layer 2"><g id="page_4" data-name="page 4"><g id="industry"><path class="cls-1" d="M1,14.91q31.82-11,61,0c37.11,14.68,73.52,16.15,109,0,15.86-7.23,31.53-7.41,47,0,27.69,12.84,56.89,12.54,87,4.28,48.19-16.06,56.79-10.55,64-4.28,24.51,10.76,51.43,13.33,83,0,79.63-19.68,113.64-20,100,0,37.63,13.81,67,17.28,83,4.28,34.35-12.68,67.78-8.32,101,0,22.65-13,43.69-18.06,62-9.77q33.16,7,56,0c29.36-14.16,56.63-10.85,83,0h23V217H0Z"/></g></g></g></svg>