<svg xmlns="http://www.w3.org/2000/svg" viewBox="0 0 148.05 125"><defs><style>.cls-1{fill:#6c6d6d;opacity:0.63;}</style></defs><g id="Layer_2" data-name="Layer 2"><g id="page_4" data-name="page 4"><g id="sewage"><path class="cls-1" d="M92.58,0V39c-8.47,10-13.1,23.28-11.47,42l32.64,1c2.72,2.86,2.48,5.87,0,9H81.11c-2.23,2.74-2.35,5.41,0,8h64.4c3.57,3.14,3.2,6.49,0,10H102.28a6,6,0,0,0,0,8H126.1c1.49,3,2.08,5.83,0,8h-97c-3.53-3.55-4.06-6.91,0-10h49.4c1.38-2,2.24-4.09-.08-6.39L37,109c-2.15-3.43-2.58-7.22-.12-11.63L60.82,97c2.25-1.83,2.72-3.8,0-6L1.51,89.78c-2-3-2-5.91.21-8.78H29.07C40.42,35.61,64.63,14.31,92.58,0Z"/></g></g></g></svg>